name rise49.8558peak67.6521fall70.3087.mot
datacolumns 19
datarows 21
range 2.13999600000000 2.17332300000000
endheader
time	ground_force1_vx	ground_force1_vy	ground_force1_vz	ground_force1_px	ground_force1_py	ground_force1_pz	ground_force2_vx	ground_force2_vy	ground_force2_vz	ground_force2_px	ground_force2_py	ground_force2_pz	ground_torque1_x	ground_torque1_y	ground_torque1_z	ground_torque2_x	ground_torque2_y	ground_torque2_z	
2.13999600000000	60.73971500000000	701.01115200000004	50.42955400000000	0.33810200000000	0.00000000000000	0.09667500000000	-1.31140000000000	7.14383500000000	0.65922400000000	0.00000000000000	0.00000000000000	0.00000000000000	0.00000000000000	22.15007500000000	0.00000000000000	0.00000000000000	-0.11368500000000	0.00000000000000	
2.14165900000000	60.22619700000000	704.25273900000002	50.72337200000000	0.33708300000000	0.00000000000000	0.09668400000000	-0.57918700000000	3.59407500000000	0.40020100000000	0.00000000000000	0.00000000000000	0.00000000000000	0.00000000000000	22.30625000000000	0.00000000000000	0.00000000000000	-0.04295800000000	0.00000000000000	
2.14332100000000	59.71767100000000	707.46197299999994	51.02499300000000	0.33611400000000	0.00000000000000	0.09669300000000	0.00000000000000	0.00000000000000	0.00000000000000	0.00000000000000	0.00000000000000	0.00000000000000	0.00000000000000	22.46883100000000	0.00000000000000	0.00000000000000	0.00000000000000	0.00000000000000	
2.14499000000000	59.21396100000000	710.63454899999999	51.33367800000000	0.33519500000000	0.00000000000000	0.09670100000000	0.00000000000000	0.00000000000000	0.00000000000000	0.00000000000000	0.00000000000000	0.00000000000000	0.00000000000000	22.63737900000000	0.00000000000000	0.00000000000000	0.00000000000000	0.00000000000000	
2.14665900000000	58.71481600000000	713.76606500000003	51.64860100000000	0.33432300000000	0.00000000000000	0.09670800000000	0.00000000000000	0.00000000000000	0.00000000000000	0.00000000000000	0.00000000000000	0.00000000000000	0.00000000000000	22.81140400000000	0.00000000000000	0.00000000000000	0.00000000000000	0.00000000000000	
2.14832100000000	58.21991300000000	716.85204999999996	51.96885500000000	0.33349600000000	0.00000000000000	0.09671400000000	0.00000000000000	0.00000000000000	0.00000000000000	0.00000000000000	0.00000000000000	0.00000000000000	0.00000000000000	22.99036200000000	0.00000000000000	0.00000000000000	0.00000000000000	0.00000000000000	
2.14999600000000	57.72886000000000	719.88798399999996	52.29345700000000	0.33271300000000	0.00000000000000	0.09672000000000	0.00000000000000	0.00000000000000	0.00000000000000	0.00000000000000	0.00000000000000	0.00000000000000	0.00000000000000	23.17366500000000	0.00000000000000	0.00000000000000	0.00000000000000	0.00000000000000	
2.15165700000000	57.24120500000000	722.86932600000000	52.62135600000000	0.33197200000000	0.00000000000000	0.09672400000000	0.00000000000000	0.00000000000000	0.00000000000000	0.00000000000000	0.00000000000000	0.00000000000000	0.00000000000000	23.36067900000000	0.00000000000000	0.00000000000000	0.00000000000000	0.00000000000000	
2.15333000000000	56.75643800000000	725.79153599999995	52.95143900000000	0.33126900000000	0.00000000000000	0.09672700000000	0.00000000000000	0.00000000000000	0.00000000000000	0.00000000000000	0.00000000000000	0.00000000000000	0.00000000000000	23.55073100000000	0.00000000000000	0.00000000000000	0.00000000000000	0.00000000000000	
2.15499200000000	56.27399900000000	728.65009799999996	53.28254100000000	0.33060200000000	0.00000000000000	0.09672900000000	0.00000000000000	0.00000000000000	0.00000000000000	0.00000000000000	0.00000000000000	0.00000000000000	0.00000000000000	23.74311100000000	0.00000000000000	0.00000000000000	0.00000000000000	0.00000000000000	
2.15665900000000	55.79328200000000	731.44054400000005	53.61344600000000	0.32997000000000	0.00000000000000	0.09673100000000	0.00000000000000	0.00000000000000	0.00000000000000	0.00000000000000	0.00000000000000	0.00000000000000	0.00000000000000	23.93707700000000	0.00000000000000	0.00000000000000	0.00000000000000	0.00000000000000	
2.15832100000000	55.31364400000000	734.15847900000006	53.94290200000000	0.32936700000000	0.00000000000000	0.09673100000000	0.00000000000000	0.00000000000000	0.00000000000000	0.00000000000000	0.00000000000000	0.00000000000000	0.00000000000000	24.13186000000000	0.00000000000000	0.00000000000000	0.00000000000000	0.00000000000000	
2.15999300000000	54.83440600000000	736.79959899999994	54.26962500000000	0.32879300000000	0.00000000000000	0.09673100000000	0.00000000000000	0.00000000000000	0.00000000000000	0.00000000000000	0.00000000000000	0.00000000000000	0.00000000000000	24.32666600000000	0.00000000000000	0.00000000000000	0.00000000000000	0.00000000000000	
2.16165800000000	54.35486700000000	739.35971600000005	54.59230600000000	0.32824300000000	0.00000000000000	0.09673000000000	0.00000000000000	0.00000000000000	0.00000000000000	0.00000000000000	0.00000000000000	0.00000000000000	0.00000000000000	24.52068400000000	0.00000000000000	0.00000000000000	0.00000000000000	0.00000000000000	
2.16332800000000	53.87430200000000	741.83477500000004	54.90962500000000	0.32771500000000	0.00000000000000	0.09672800000000	0.00000000000000	0.00000000000000	0.00000000000000	0.00000000000000	0.00000000000000	0.00000000000000	0.00000000000000	24.71308800000000	0.00000000000000	0.00000000000000	0.00000000000000	0.00000000000000	
2.16498800000000	53.39197400000000	744.22087899999997	55.22025200000000	0.32720500000000	0.00000000000000	0.09672500000000	0.00000000000000	0.00000000000000	0.00000000000000	0.00000000000000	0.00000000000000	0.00000000000000	0.00000000000000	24.90304200000000	0.00000000000000	0.00000000000000	0.00000000000000	0.00000000000000	
2.16666000000000	52.90713800000000	746.51430100000005	55.52285900000000	0.32671000000000	0.00000000000000	0.09672100000000	0.00000000000000	0.00000000000000	0.00000000000000	0.00000000000000	0.00000000000000	0.00000000000000	0.00000000000000	25.08970600000000	0.00000000000000	0.00000000000000	0.00000000000000	0.00000000000000	
2.16832700000000	52.41904600000000	748.71150799999998	55.81613000000000	0.32622700000000	0.00000000000000	0.09671700000000	0.00000000000000	0.00000000000000	0.00000000000000	0.00000000000000	0.00000000000000	0.00000000000000	0.00000000000000	25.27224000000000	0.00000000000000	0.00000000000000	0.00000000000000	0.00000000000000	
2.16999500000000	51.92695600000000	750.80917199999999	56.09876400000000	0.32575300000000	0.00000000000000	0.09671200000000	0.00000000000000	0.00000000000000	0.00000000000000	0.00000000000000	0.00000000000000	0.00000000000000	0.00000000000000	25.44981100000000	0.00000000000000	0.00000000000000	0.00000000000000	0.00000000000000	
2.17165800000000	51.43013700000000	752.80419099999995	56.36948800000000	0.32528300000000	0.00000000000000	0.09670700000000	0.00000000000000	0.00000000000000	0.00000000000000	0.00000000000000	0.00000000000000	0.00000000000000	0.00000000000000	25.62159300000000	0.00000000000000	0.00000000000000	0.00000000000000	0.00000000000000	
2.17332300000000	50.92787300000000	754.69369800000004	56.62706000000000	0.32481500000000	0.00000000000000	0.09670100000000	0.00000000000000	0.00000000000000	0.00000000000000	0.00000000000000	0.00000000000000	0.00000000000000	0.00000000000000	25.78677700000000	0.00000000000000	0.00000000000000	0.00000000000000	0.00000000000000	
